<?xml version="1.0" encoding="UTF-8"?>
<svg width="36px" height="36px" viewBox="0 0 36 36" version="1.1" xmlns="http://www.w3.org/2000/svg" xmlns:xlink="http://www.w3.org/1999/xlink">
    <title>编组备份</title>
    <g id="页面-1" stroke="none" stroke-width="1" fill="none" fill-rule="evenodd">
        <g id="知识库-数据集" transform="translate(-264, -116)">
            <g id="编组备份" transform="translate(264, 116)">
                <path d="M18,0 C27.9411255,-1.82615513e-15 36,8.0588745 36,18 C36,27.9411255 27.9411255,36 18,36 C8.0588745,36 1.21743675e-15,27.9411255 0,18 C-1.21743675e-15,8.0588745 8.0588745,1.82615513e-15 18,0 Z" id="Fill-335" fill="#EAF1FF"></path>
                <g id="编组-25" transform="translate(7.5, 9)">
                    <rect id="矩形" x="0" y="0" width="21" height="21"></rect>
                    <path d="M9.45,19.95 L11.8384873,5.86086586 C11.8384873,5.86086586 14.402169,2.48291329 19.4944931,3.26848327 C19.7572846,3.31078357 19.95,3.54645402 19.95,3.81838281 L19.1090644,14.8437913 C18.9630681,16.1490466 18.1922128,17.2125873 16.9658506,17.3878294 C15.1146272,17.6537151 10.9041156,17.4603461 9.45,19.95 Z" id="Fill-265" fill="#0066FF"></path>
                    <path d="M9.40161931,19.95 L9.45,4.78125568 C9.45,4.78125568 6.79513951,1.44019973 1.52170595,2.2171891 C1.24956828,2.25902629 1.05,2.49212364 1.05,2.76108221 L1.05,13.8835004 C1.05,15.1505916 1.99945962,16.2264248 3.26943869,16.3997538 C5.19254882,16.6687113 7.89578781,17.4935171 9.40161931,19.95 Z" id="Fill-266" fill="#0066FF"></path>
                    <path d="M9.49837959,19.95 L9.45,4.78125568 C9.45,4.78125568 12.1048605,1.44019973 17.3782941,2.2171891 C17.6504317,2.25902629 17.85,2.49212364 17.85,2.76108221 L17.85,13.8835004 C17.85,15.1505916 16.9005382,16.2264248 15.6305602,16.3997538 C13.7074501,16.6687113 11.0042111,17.4935171 9.49837959,19.95 Z" id="Fill-267" fill="#8AB9FF"></path>
                </g>
            </g>
        </g>
    </g>
</svg>