<?xml version="1.0" encoding="UTF-8"?>
<svg width="24px" height="24px" viewBox="0 0 24 24" version="1.1" xmlns="http://www.w3.org/2000/svg" xmlns:xlink="http://www.w3.org/1999/xlink">
    <title>编组 9</title>
    <defs>
        <linearGradient x1="50%" y1="100%" x2="50%" y2="0%" id="linearGradient-1">
            <stop stop-color="#009FFF" offset="0%"></stop>
            <stop stop-color="#0066FF" offset="100%"></stop>
        </linearGradient>
    </defs>
    <g id="页面-1" stroke="none" stroke-width="1" fill="none" fill-rule="evenodd">
        <g id="知识库-数据集" transform="translate(-482, -323)">
            <g id="编组-34备份-3" transform="translate(458, 313)">
                <g id="编组-9" transform="translate(24, 10)">
                    <path d="M2.88,0 L21.12,0 C22.7105801,1.56462329e-15 24,1.28941992 24,2.88 L24,21.12 C24,22.7105801 22.7105801,24 21.12,24 L2.88,24 C1.28941992,24 2.75795744e-15,22.7105801 0,21.12 L0,2.88 C2.4929933e-16,1.28941992 1.28941992,7.3627403e-16 2.88,0 Z" id="矩形" fill="#E3F3FF"></path>
                    <g id="编组-33" transform="translate(4.32, 4.2337)">
                        <path d="M3.08240956,0.809720058 L12.2915386,0.806869334 C13.2458864,0.806039085 14.0197778,1.57945149 14.0200733,2.53379947 C14.0200733,2.53397777 14.0200733,2.53415608 14.0195385,2.53433438 L14.0195385,4.91283382 L14.0195385,4.91283382 L14.0137691,12.9913951 C14.0118457,13.9490909 13.2352873,14.725095 12.2775904,14.7263344 L3.08240965,14.7263344 C2.12422887,14.7263344 1.34746988,13.9495754 1.34746988,12.9913947 L1.34746988,2.54519688 C1.34800702,1.58722583 2.12443873,0.810553743 3.08240956,0.809720058 Z" id="矩形" fill="url(#linearGradient-1)"></path>
                        <path d="M2.29973554,0.531039382 L9.00664031,0.523209269 L9.00664031,0.523209269 L13.1748628,4.5511648 L13.1442992,12.4704581 C13.1406418,13.4181231 12.3717348,14.1846126 11.424063,14.1852859 L2.29565016,14.1917712 C1.34490763,14.1924466 0.573630977,13.4222651 0.572955526,12.4715226 C0.572954944,12.4707039 0.572954946,12.4698853 0.572955533,12.4690666 L0.580273692,2.25127731 C0.580953724,1.30180091 1.35025954,0.532147867 2.29973554,0.531039382 Z" id="矩形" fill-opacity="0.232025787" fill="#FFFFFF" transform="translate(6.8733, 7.3581) rotate(5) translate(-6.8733, -7.3581)"></path>
                        <path d="M9.41174744,0.884008985 L9.40983026,3.56082175 C9.40928551,4.32141576 10.0254272,4.93844065 10.7860212,4.9389854 C10.7866761,4.93898587 10.787331,4.93898587 10.787986,4.9389854 L13.579952,4.93700186 L13.579952,4.93700186 L9.41174744,0.884008985 Z" id="路径-6" fill-opacity="0.232025787" fill="#FFFFFF" transform="translate(11.4944, 2.912) rotate(5) translate(-11.4944, -2.912)"></path>
                        <rect id="矩形" fill="#FFFFFF" transform="translate(6.12, 5.8629) rotate(6) translate(-6.12, -5.8629)" x="3.6" y="5.52" width="5.04" height="1" rx="0.346987953"></rect>
                        <rect id="矩形备份-7" fill="#FFFFFF" transform="translate(4.5745, 7.7829) rotate(6) translate(-4.5745, -7.7829)" x="3.36" y="7.44" width="2.42891566" height="1" rx="0.346987953"></rect>
                        <rect id="矩形备份-9" fill="#FFFFFF" transform="translate(5.16, 9.7029) rotate(6) translate(-5.16, -9.7029)" x="3.12" y="9.36" width="4.08" height="1" rx="0.346987953"></rect>
                    </g>
                </g>
            </g>
        </g>
    </g>
</svg>