<?xml version="1.0" encoding="UTF-8"?>
<svg width="19.9999998px" height="19.9999998px" viewBox="0 0 19.9999998 19.9999998" version="1.1" xmlns="http://www.w3.org/2000/svg" xmlns:xlink="http://www.w3.org/1999/xlink">
    <title>编组 6备份</title>
    <g id="页面-1" stroke="none" stroke-width="1" fill="none" fill-rule="evenodd">
        <g id="聊天助理备份-11" transform="translate(-28, -234)">
            <g id="编组-12" transform="translate(12, 220)">
                <g id="编组-6备份" transform="translate(16, 14)">
                    <g id="应用备份-2" fill="currentColor" fill-rule="nonzero" opacity="0">
                        <rect id="矩形" x="0" y="0" width="19.9999998" height="19.9999998"></rect>
                    </g>
                    <g id="编组-5" transform="translate(1, 1)" stroke="currentColor" stroke-width="1.6">
                        <path d="M5.29411765,0.8 C5.95036188,0.8 6.54447953,1.06599553 6.97453612,1.49605212 C7.4045927,1.92610871 7.67058824,2.52022636 7.67058824,3.17647059 L7.67058824,7.67058824 L3.17647059,7.67058824 C2.52022636,7.67058824 1.92610871,7.4045927 1.49605212,6.97453612 C1.06599553,6.54447953 0.8,5.95036188 0.8,5.29411765 L0.8,3.17647059 C0.8,2.52022636 1.06599553,1.92610871 1.49605212,1.49605212 C1.92610871,1.06599553 2.52022636,0.8 3.17647059,0.8 Z" id="矩形"></path>
                        <path d="M5.29411765,10.3294118 C5.95036188,10.3294118 6.54447953,10.5954073 6.97453612,11.0254639 C7.4045927,11.4555205 7.67058824,12.0496381 7.67058824,12.7058824 L7.67058824,17.2 L3.17647059,17.2 C2.52022636,17.2 1.92610871,16.9340045 1.49605212,16.5039479 C1.06599553,16.0738913 0.8,15.4797736 0.8,14.8235294 L0.8,12.7058824 C0.8,12.0496381 1.06599553,11.4555205 1.49605212,11.0254639 C1.92610871,10.5954073 2.52022636,10.3294118 3.17647059,10.3294118 Z" id="矩形备份-2" transform="translate(4.2353, 13.7647) scale(1, -1) translate(-4.2353, -13.7647)"></path>
                        <path d="M14.8235294,0.8 C15.4797736,0.8 16.0738913,1.06599553 16.5039479,1.49605212 C16.9340045,1.92610871 17.2,2.52022636 17.2,3.17647059 L17.2,7.67058824 L12.7058824,7.67058824 C12.0496381,7.67058824 11.4555205,7.4045927 11.0254639,6.97453612 C10.5954073,6.54447953 10.3294118,5.95036188 10.3294118,5.29411765 L10.3294118,3.17647059 C10.3294118,2.52022636 10.5954073,1.92610871 11.0254639,1.49605212 C11.4555205,1.06599553 12.0496381,0.8 12.7058824,0.8 Z" id="矩形备份" transform="translate(13.7647, 4.2353) scale(-1, 1) translate(-13.7647, -4.2353)"></path>
                        <path d="M14.8235294,10.3294118 C15.4797736,10.3294118 16.0738913,10.5954073 16.5039479,11.0254639 C16.9340045,11.4555205 17.2,12.0496381 17.2,12.7058824 L17.2,17.2 L12.7058824,17.2 C12.0496381,17.2 11.4555205,16.9340045 11.0254639,16.5039479 C10.5954073,16.0738913 10.3294118,15.4797736 10.3294118,14.8235294 L10.3294118,12.7058824 C10.3294118,12.0496381 10.5954073,11.4555205 11.0254639,11.0254639 C11.4555205,10.5954073 12.0496381,10.3294118 12.7058824,10.3294118 Z" id="矩形备份-3" transform="translate(13.7647, 13.7647) scale(-1, -1) translate(-13.7647, -13.7647)"></path>
                    </g>
                </g>
            </g>
        </g>
    </g>
</svg>
