<?xml version="1.0" encoding="UTF-8"?>
<svg width="17.9181746px" height="18px" viewBox="0 0 17.9181746 18" version="1.1" xmlns="http://www.w3.org/2000/svg" xmlns:xlink="http://www.w3.org/1999/xlink">
    <title>编组 16备份 3</title>
    <g id="页面-1" stroke="none" stroke-width="1" fill="none" fill-rule="evenodd">
        <g id="聊天助理备份-11" transform="translate(-29, -399)">
            <g id="编组-32" transform="translate(12, 384)">
                <g id="编组-16备份-3" transform="translate(16, 14)">
                    <rect id="矩形" x="0" y="0" width="20" height="20"></rect>
                    <g id="编组" transform="translate(1, 1)" stroke="currentColor" stroke-width="1.6">
                        <path d="M5.67939838,0.8 C6.04653253,0.8 6.38057581,0.941770785 6.62966046,1.17364903 C7.03801247,1.55379269 7.21904518,2.1756881 6.94064006,2.81247578 L13.4096956,2.99515726 C14.4350563,2.99224069 15.3636305,3.40667627 16.0351354,4.07818116 C16.7042924,4.74733815 17.1181746,5.67176993 17.1181746,6.69286908 L17.1181746,7.49793749 L0.8,7.49793749 L0.8,3.93727017 C0.8,3.07093694 1.15115093,2.28661939 1.71888516,1.71888516 C2.28661939,1.15115093 3.07093694,0.8 3.93727017,0.8 Z" id="形状" fill-rule="nonzero"></path>
                        <path d="M0.8,7.55 L17.1181746,7.55 L17.1181746,13.5022729 C17.1181746,14.523372 16.7042924,15.4478038 16.0351354,16.1169608 C15.3659784,16.7861178 14.4415466,17.2 13.4204475,17.2 L4.49772711,17.2 C3.47662796,17.2 2.55219619,16.7861178 1.8830392,16.1169608 C1.2138822,15.4478038 0.8,14.523372 0.8,13.5022729 L0.8,7.55 Z" id="矩形"></path>
                    </g>
                </g>
            </g>
        </g>
    </g>
</svg>
