<?xml version="1.0" encoding="UTF-8"?>
<svg width="18.2167024px" height="19.6px" viewBox="0 0 18.2167024 19.6" version="1.1" xmlns="http://www.w3.org/2000/svg" xmlns:xlink="http://www.w3.org/1999/xlink">
    <title>智能体备份 7</title>
    <g id="页面-1" stroke="none" stroke-width="1" fill="none" fill-rule="evenodd">
        <g id="聊天助理备份-11" transform="translate(-28.8916, -174.2)">
            <g id="智能体备份-7" transform="translate(28, 174)">
                <rect id="矩形" x="0" y="0" width="20" height="20"></rect>
                <g id="编组-3" transform="translate(1.6916, 1)" stroke="currentColor">
                    <path d="M6.38961968,0.514122561 C7.57693487,-0.171374187 9.03976752,-0.171374187 10.2270827,0.514122561 L14.6979709,3.09539104 C15.8852861,3.78088779 16.6167024,5.04773802 16.6167024,6.41873152 L16.6167024,11.5812685 C16.6167024,12.952262 15.8852861,14.2191122 14.6979709,14.904609 L10.2270827,17.4858774 C9.03976752,18.1713742 7.57693487,18.1713742 6.38961968,17.4858774 L1.91873152,14.904609 C0.731416323,14.2191122 0,12.952262 0,11.5812685 L0,6.41873152" id="路径" stroke-width="1.6" stroke-linecap="round" stroke-linejoin="round" transform="translate(8.3084, 9) scale(-1, 1) translate(-8.3084, -9)"></path>
                    <path d="M5.16779545,11.0476742 C5.47292219,10.918429 5.82505019,11.0610092 5.95429535,11.366136 C6.03416053,11.5546847 6.22187031,11.8694058 6.51790965,12.1836264 C6.99789001,12.6930846 7.58552482,12.9899809 8.3083512,12.9899809 C9.44185932,12.9899809 10.2073418,12.4711689 10.6947183,11.35928 C10.8277498,11.055785 11.1816246,10.9175971 11.4851196,11.0506286 C11.7886147,11.1836602 11.9268026,11.537535 11.793771,11.84103 C11.1182083,13.3822424 9.92642848,14.1899809 8.3083512,14.1899809 C7.22544964,14.1899809 6.3361915,13.7406926 5.64448925,13.0065096 C5.23751903,12.5745454 4.98018038,12.1430819 4.84933366,11.8341741 C4.7200885,11.5290473 4.8626687,11.1769193 5.16779545,11.0476742 Z" id="路径-7" stroke-width="0.6" fill="currentColor" fill-rule="nonzero"></path>
                    <path d="M12.7682811,0.00654574775 C12.7942816,-0.00218191592 12.8224207,-0.00218191592 12.8484212,0.00654574775 C12.9082358,0.026620667 12.9443752,0.13649724 13.0166311,0.356227599 C13.3193041,1.27652935 13.470652,1.73668022 13.7562124,2.10124167 C13.8877784,2.26917522 14.0391781,2.42057502 14.2071115,2.55214121 C14.5716498,2.83770181 15.031823,2.98904984 15.9521239,3.29172312 C16.1718541,3.36397915 16.2817306,3.40011856 16.3018055,3.45993317 C16.3105331,3.48593369 16.3105331,3.51407281 16.3018055,3.54007334 C16.2817306,3.59988794 16.1718541,3.63602735 15.9521239,3.70828339 C15.031823,4.01095666 14.5716498,4.16230469 14.2071115,4.44786529 C14.0391781,4.57943148 13.8877784,4.73083128 13.7562124,4.89876484 C13.470652,5.2633035 13.3193041,5.72347716 13.0166311,6.64380169 C12.9443752,6.86350926 12.9082358,6.97340862 12.8484212,6.99343797 C12.8224243,7.00218734 12.7942781,7.00218734 12.7682811,6.99343797 C12.7084666,6.97340862 12.6723272,6.86350926 12.6000713,6.64380169 C12.2973983,5.72347716 12.1460504,5.2633035 11.8604673,4.89876484 C11.7289153,4.73082641 11.5775225,4.57942586 11.4095909,4.44786529 C11.0450298,4.16230469 10.5848794,4.01095666 9.66457846,3.70828339 C9.44482552,3.63602735 9.33497184,3.59988794 9.31489694,3.54007334 C9.30616928,3.51407281 9.30616928,3.48593369 9.31489694,3.45993317 C9.33497184,3.40011856 9.44482552,3.36397915 9.66457846,3.29172312 C10.5848794,2.98904984 11.0450298,2.83770181 11.4095909,2.55214121 C11.5775225,2.42058064 11.7289153,2.26918009 11.8604673,2.10124167 C12.1460504,1.73668022 12.2973983,1.27652935 12.6000713,0.356227599 C12.6723272,0.13649724 12.7084666,0.026620667 12.7682811,0.00654574775 Z" id="路径" stroke-width="1.4" stroke-linejoin="round"></path>
                </g>
            </g>
        </g>
    </g>
</svg>
