<?xml version="1.0" encoding="UTF-8"?>
<svg width="18px" height="16px" viewBox="0 0 18 16" version="1.1" xmlns="http://www.w3.org/2000/svg" xmlns:xlink="http://www.w3.org/1999/xlink">
    <title>聊天助理备份 7</title>
    <g id="页面-1" stroke="none" stroke-width="1" fill="none" fill-rule="evenodd">
        <g id="聊天助理备份-11" transform="translate(-29, -116)">
            <g id="聊天助理备份-7" transform="translate(28, 114)">
                <rect id="矩形" x="0" y="0" width="20" height="20"></rect>
                <path d="M15,2.8 C15.8836556,2.8 16.6836556,3.1581722 17.2627417,3.7372583 C17.8418278,4.3163444 18.2,5.1163444 18.2,6 L18.2,17.2 L5,17.2 C4.1163444,17.2 3.3163444,16.8418278 2.7372583,16.2627417 C2.1581722,15.6836556 1.8,14.8836556 1.8,14 L1.8,6 C1.8,5.1163444 2.1581722,4.3163444 2.7372583,3.7372583 C3.3163444,3.1581722 4.1163444,2.8 5,2.8 Z" id="形状结合" stroke="currentColor" stroke-width="1.6"></path>
                <ellipse id="椭圆形" stroke="currentColor" stroke-width="0.2" fill="currentColor" cx="12.7179943" cy="7.06666197" rx="1.1259995" ry="1.11333239"></ellipse>
                <ellipse id="椭圆形备份-19" stroke="currentColor" stroke-width="0.2" fill="currentColor" cx="7.42599688" cy="7.06666197" rx="1.1259995" ry="1.11333239"></ellipse>
                <path d="M6.83398785,9.44751916 C7.13911459,9.318274 7.49124259,9.4608542 7.62048774,9.76598095 C7.70035293,9.95452965 7.88806271,10.2692508 8.18410205,10.5834714 C8.66408241,11.0929296 9.25171722,11.3898259 9.97454359,11.3898259 C11.1080517,11.3898259 11.8735342,10.8710139 12.3609107,9.759125 C12.4939422,9.45562997 12.847817,9.31744204 13.151312,9.45047363 C13.4548071,9.58350521 13.592995,9.93737996 13.4599634,10.240875 C12.7844007,11.7820873 11.5926209,12.5898259 9.97454359,12.5898259 C8.89164204,12.5898259 8.0023839,12.1405375 7.31068165,11.4063546 C6.90371143,10.9743904 6.64637278,10.5429268 6.51552605,10.2340191 C6.3862809,9.92889231 6.5288611,9.57676431 6.83398785,9.44751916 Z" id="路径-7" stroke="currentColor" stroke-width="0.4" fill="currentColor" fill-rule="nonzero"></path>
            </g>
        </g>
    </g>
</svg>
