<?xml version="1.0" encoding="UTF-8"?>
<svg width="18px" height="18px" viewBox="0 0 18 18" version="1.1" xmlns="http://www.w3.org/2000/svg" xmlns:xlink="http://www.w3.org/1999/xlink">
    <title>执行记录</title>
    <g id="页面-1" stroke="none" stroke-width="1" fill="none" fill-rule="evenodd">
        <g id="助理市场" transform="translate(-29, -339)">
            <g id="编组-22" transform="translate(12, 324)">
                <g id="执行记录" transform="translate(16, 14)">
                    <rect id="矩形" x="0" y="0" width="20" height="20"></rect>
                    <g id="编组-14" transform="translate(1, 1)">
                        <path d="M14,0 C16.209139,0 18,1.790861 18,4 L18,14 C18,16.209139 16.209139,18 14,18 L4,18 C1.790861,18 0,16.209139 0,14 L0,4 C0,1.790861 1.790861,0 4,0 L14,0 Z M14,1.6 L4,1.6 C2.6745166,1.6 1.6,2.6745166 1.6,4 L1.6,14 C1.6,15.3254834 2.6745166,16.4 4,16.4 L14,16.4 C15.3254834,16.4 16.4,15.3254834 16.4,14 L16.4,4 C16.4,2.6745166 15.3254834,1.6 14,1.6 Z" id="形状结合" fill="currentColor" fill-rule="nonzero"></path>
                        <path d="M12.2,6 C12.6418278,6 13,6.3581722 13,6.8 C13,7.2418278 12.6418278,7.6 12.2,7.6 L4.8,7.6 C4.3581722,7.6 4,7.2418278 4,6.8 C4,6.3581722 4.3581722,6 4.8,6 L12.2,6 Z" id="矩形" fill="currentColor" fill-rule="nonzero"></path>
                        <path d="M7.2,11 C7.6418278,11 8,11.3581722 8,11.8 C8,12.2418278 7.6418278,12.6 7.2,12.6 L4.8,12.6 C4.3581722,12.6 4,12.2418278 4,11.8 C4,11.3581722 4.3581722,11 4.8,11 L7.2,11 Z" id="矩形备份-4" fill="currentColor" fill-rule="nonzero"></path>
                        <g id="编组-13" transform="translate(7.4, 2.6)"></g>
                    </g>
                </g>
            </g>
        </g>
    </g>
</svg>
