<?xml version="1.0" encoding="UTF-8"?>
<svg width="16px" height="16px" viewBox="0 0 16 16" version="1.1" xmlns="http://www.w3.org/2000/svg" xmlns:xlink="http://www.w3.org/1999/xlink">
    <title>提现处理</title>
    <g id="页面-1" stroke="none" stroke-width="1" fill="none" fill-rule="evenodd">
        <g id="用户反馈" transform="translate(-1271.927, -339.3732)" fill="currentColor" fill-rule="nonzero">
            <g id="编组-8备份-2" transform="translate(252, 183)">
                <g id="🧩智能组件-Menu备份-2" transform="translate(1009, 100)">
                    <g id="LI备份-2" transform="translate(10.927, 44.3732)">
                        <g id="提现处理" transform="translate(0, 12)">
                            <rect id="矩形" opacity="0" x="0" y="0" width="16" height="16"></rect>
                            <path d="M12.3318438,15.03125 L3.66523437,15.03125 C2.17667472,15.0296396 0.970360368,13.8233253 0.96875,12.3347656 L0.96875,3.66582813 C0.970033149,2.1770366 2.17644317,0.970360936 3.66523438,0.96875 L9.51289063,0.96875 C9.79606865,0.98206589 10.0188149,1.21553251 10.0188149,1.49902344 C10.0188149,1.78251437 9.79606865,2.01598099 9.51289063,2.02929688 L3.66523438,2.02929688 C2.76116184,2.03027001 2.02851139,2.76292745 2.02754688,3.667 L2.02754688,12.3359375 C2.02851139,13.24001 2.76116184,13.9726675 3.66523438,13.9736406 L12.3335938,13.9736406 C13.2374405,13.972349 13.9697393,13.2397847 13.9707031,12.3359375 L13.9707031,7.09707813 C13.984019,6.8139001 14.2174856,6.59115382 14.5009766,6.59115382 C14.7844675,6.59115382 15.0179341,6.8139001 15.03125,7.09707813 L15.03125,12.3359375 C15.0273777,13.8245083 13.8204187,15.0296369 12.3318438,15.03125 Z M7.53828125,10.8119063 L4.45742188,6.99159375 C4.29037213,6.76278221 4.33243044,6.4431161 4.55297987,6.26530078 C4.7735293,6.08748547 5.09484273,6.11418749 5.28301563,6.32596875 L7.62148438,9.22578125 L13.7263594,3.09804688 C13.8774244,2.94578909 14.105464,2.89979496 14.3037367,2.98159357 C14.5020094,3.06339218 14.6312831,3.25679812 14.6310668,3.47128125 C14.6322735,3.61176135 14.5767059,3.74678123 14.4769531,3.84570313 L7.53828125,10.8119063 Z" id="形状"></path>
                        </g>
                    </g>
                </g>
            </g>
        </g>
    </g>
</svg>
