<?xml version="1.0" encoding="UTF-8"?>
<svg width="16px" height="16px" viewBox="0 0 16 16" version="1.1" xmlns="http://www.w3.org/2000/svg" xmlns:xlink="http://www.w3.org/1999/xlink">
    <title>问题解答</title>
    <g id="页面-1" stroke="none" stroke-width="1" fill="none" fill-rule="evenodd">
        <g id="用户反馈" transform="translate(-26, -837)" fill="currentColor" fill-rule="nonzero">
            <g id="编组-25备份" transform="translate(0, -1)">
                <g id="编组-23" transform="translate(12, 17)">
                    <g id="编组-8" transform="translate(0, 42)">
                        <g id="问题解答" transform="translate(14, 779)">
                            <rect id="矩形" opacity="0" x="0" y="0" width="16" height="16"></rect>
                            <path d="M14.495,10.9205 C14.495,10.9115 14.5,10.904 14.5,10.8945 L14.5,2.077 C14.5,1.2075 13.8055,0.5 12.952,0.5 L3.0475,0.5 C2.1945,0.5 1.5,1.2075 1.5,2.077 L1.5,13.923 C1.5,14.7925 2.1945,15.5 3.0475,15.5 L10.548,15.5 C10.6683847,15.5 10.784728,15.4565754 10.8755,15.3775 L14.3170683,11.4421079 C14.4583939,11.32694 14.5258343,11.1439798 14.4930664,10.9646398 C14.4602985,10.7852998 14.3325168,10.6380094 14.1595966,10.5802585 C13.9866763,10.5225076 13.7960294,10.5634511 13.6620683,10.6871079 L11,13.9455 L11,12.0775 C11,11.759 11.2455,11.5 11.548,11.5 L14.011,11.5 C14.2871424,11.5 14.5111056,11.2761424 14.5111056,11 C14.5105,10.972 14.499,10.9475 14.495,10.9205 Z M10,12.077 L10,14.5 L3.0475,14.5 C2.7455,14.5 2.5,14.241 2.5,13.923 L2.5,2.077 C2.5,1.759 2.7455,1.5 3.0475,1.5 L12.952,1.5 C13.2545,1.5 13.5,1.759 13.5,2.077 L13.5,10.5 L11.548,10.5 C10.6945,10.5 10,11.2075 10,12.077 Z M7.75,12.5 C8.16421356,12.5 8.5,12.1642136 8.5,11.75 C8.5,11.3357864 8.16421356,11 7.75,11 C7.33578644,11 7,11.3357864 7,11.75 C7,12.1642136 7.33578644,12.5 7.75,12.5 Z M7.663,3 C6.09616816,3 4.826,4.27016816 4.826,5.837 C4.826,6.11314237 5.04985763,6.337 5.326,6.337 C5.60214237,6.337 5.826,6.11314237 5.826,5.837 C5.8492831,4.83914884 6.66487724,4.04236315 7.663,4.04236315 C8.66112276,4.04236315 9.4767169,4.83914884 9.5,5.837 C9.5,6.8515 8.6775,7.7975 7.663,7.7975 C7.38685763,7.7975 7.163,8.02135763 7.163,8.2975 L7.163,9.279 C7.163,9.55514237 7.38685763,9.779 7.663,9.779 C7.93914237,9.779 8.163,9.55514237 8.163,9.279 L8.163,8.7535 C9.4915,8.517 10.5,7.233 10.5,5.837 C10.5,4.27016816 9.22983184,3 7.663,3 Z" id="形状"></path>
                        </g>
                    </g>
                </g>
            </g>
        </g>
    </g>
</svg>
