<?xml version="1.0" encoding="UTF-8"?>
<svg width="23.9323372px" height="21.9639032px" viewBox="0 0 23.9323372 21.9639032" version="1.1" xmlns="http://www.w3.org/2000/svg" xmlns:xlink="http://www.w3.org/1999/xlink">
    <title>编组 13备份</title>
    <g id="页面-1" stroke="none" stroke-width="1" fill="none" fill-rule="evenodd">
        <g id="编组-13备份">
            <path d="M3.55023513,21.9152089 L5.14786918,18.0812747 C5.64813909,16.8953539 6.58412635,15.9368698 7.76218006,15.4332606 C11.5061321,13.8249567 19.2522381,10.2834398 19.8170591,9.7960746 C20.5755317,9.14625484 21.5437938,7.2780232 18.6712802,6.79065875 C18.6712802,6.79065875 21.7213106,6.82314982 22.0440659,9.08127346 C22.43137,11.9079885 21.4469679,14.0036568 20.4625681,14.5397578 C19.687957,14.9783864 4.88966572,21.931456 4.88966572,21.931456 L3.55023513,21.9152089 Z" id="Fill-228" fill="#00B8A9"></path>
            <path d="M2.51748505,21.8339382 L4.16353238,17.72383 C4.69607707,16.4566815 6.0355084,15.2545159 7.29425018,14.7184141 C7.34266422,14.7021686 7.47176557,14.6534328 7.52017811,14.6209417 L11.2964057,5.8808682 C11.5707469,5.14982002 12.5874237,5.14982002 12.8456272,5.8808682 L15.0564962,11.0469337 C17.2189505,10.0722041 18.6552077,9.4061388 19.1877523,9.11371998 L16.4766141,3.03790767 C15.7988303,1.20216634 14.0720942,0 12.1517056,0 C10.2151793,0 8.50458016,1.20216634 7.82679561,3.02166063 L0,21.9476592 L2.46907176,21.9639032 C2.48520952,21.9314122 2.50134728,21.8664293 2.51748505,21.8339382 Z" id="Fill-229" fill="#0066FF"></path>
            <path d="M21.3664381,14.9619371 C21.1889227,15.1406371 21.0114103,15.2868462 20.8338949,15.3843194 C20.607967,15.5142836 19.1555713,16.21284 17.2351828,17.1225875 L17.7677267,18.7471362 C18.4132357,20.6641044 20.2045244,21.9474984 22.2056018,21.9474984 L23.9323372,21.9474984 L21.3664381,14.9619371 Z" id="Fill-230" fill="#0066FF"></path>
        </g>
    </g>
</svg>